<?xml version="1.0" standalone="no"?>
<!DOCTYPE svg PUBLIC "-//W3C//DTD SVG 20010904//EN"
 "http://www.w3.org/TR/2001/REC-SVG-20010904/DTD/svg10.dtd">
<svg version="1.0" xmlns="http://www.w3.org/2000/svg"
 width="273.000000pt" height="273.000000pt" viewBox="0 0 273.000000 273.000000"
 preserveAspectRatio="xMidYMid meet">
<metadata>
Created by potrace 1.16, written by Peter Selinger 2001-2019
</metadata>
<g transform="translate(0.000000,273.000000) scale(0.100000,-0.100000)"
fill="#000000" stroke="none">
<path d="M1121 2705 c-497 -102 -877 -426 -1040 -889 -82 -231 -101 -465 -56
-688 56 -285 163 -497 350 -696 524 -556 1389 -576 1936 -45 197 191 335 437
384 683 9 47 21 93 26 102 11 22 12 371 1 384 -5 5 -14 41 -21 79 -18 104 -64
234 -126 354 -272 530 -885 832 -1454 716z m521 -238 c208 -55 392 -162 538
-313 191 -199 298 -434 318 -696 26 -343 -90 -657 -331 -898 -216 -216 -494
-330 -802 -330 -319 0 -598 120 -821 352 -129 135 -211 274 -267 453 -76 244
-59 541 46 784 75 173 245 379 394 480 134 89 296 156 448 185 124 23 353 15
477 -17z"/>
<path d="M1255 2151 c-47 -22 -99 -74 -114 -114 -7 -17 -11 -113 -11 -233 l0
-204 -209 0 c-124 0 -221 -4 -238 -11 -134 -51 -168 -276 -57 -381 56 -52 86
-58 304 -58 l200 0 0 -208 c0 -196 1 -210 23 -252 15 -31 37 -54 71 -75 44
-26 59 -30 125 -30 65 0 83 4 124 28 26 15 60 47 75 69 27 41 27 42 30 255 l3
213 202 0 c174 0 208 3 242 19 164 74 167 328 4 411 -34 18 -59 20 -244 20
l-205 0 0 198 c0 113 -5 214 -11 237 -14 50 -72 107 -126 123 -59 18 -142 15
-188 -7z"/>
</g>
</svg>
