<?xml version="1.0" standalone="no"?>
<!DOCTYPE svg PUBLIC "-//W3C//DTD SVG 20010904//EN"
 "http://www.w3.org/TR/2001/REC-SVG-20010904/DTD/svg10.dtd">
<svg version="1.0" xmlns="http://www.w3.org/2000/svg"
 width="267.000000pt" height="267.000000pt" viewBox="0 0 267.000000 267.000000"
 preserveAspectRatio="xMidYMid meet">
<metadata>
Created by potrace 1.16, written by Peter Selinger 2001-2019
</metadata>
<g transform="translate(0.000000,267.000000) scale(0.100000,-0.100000)"
fill="#000000" stroke="none">
<path d="M1030 2648 c-56 -38 -72 -69 -78 -147 l-5 -71 82 0 81 0 0 40 0 40
225 0 225 0 0 -40 0 -40 80 0 80 0 0 60 c0 78 -25 128 -78 158 -38 21 -49 22
-309 22 -264 0 -271 -1 -303 -22z"/>
<path d="M399 2255 c-30 -16 -29 -16 -70 -134 -34 -99 -36 -122 -11 -144 17
-16 102 -17 1019 -17 956 0 1001 1 1016 18 24 26 21 54 -14 159 -49 149 71
133 -998 133 -775 -1 -920 -3 -942 -15z"/>
<path d="M530 1770 c-11 -11 -20 -30 -20 -42 0 -13 29 -379 64 -815 50 -607
69 -799 81 -823 9 -17 34 -44 57 -60 l41 -30 579 0 c486 0 583 2 607 14 44 23
88 80 95 123 3 21 22 236 41 478 20 242 47 577 60 745 14 167 25 325 25 351 0
85 67 79 -823 79 -774 0 -787 0 -807 -20z m384 -183 c30 -30 28 -6 73 -750
l36 -608 -20 -27 c-43 -58 -143 -27 -143 45 0 15 -18 313 -40 661 -35 566 -38
637 -25 662 24 47 81 55 119 17z m474 3 c12 -11 24 -31 27 -43 3 -12 4 -318 3
-680 l-3 -659 -24 -19 c-31 -25 -79 -24 -108 3 l-23 21 0 674 0 674 25 24 c30
31 73 32 103 5z m477 -5 c15 -14 25 -36 25 -52 0 -53 -71 -1258 -76 -1291 -3
-18 -14 -42 -25 -53 -26 -26 -83 -25 -109 1 -27 27 -27 44 15 740 19 322 35
595 35 608 0 33 43 72 80 72 19 0 40 -9 55 -25z"/>
</g>
</svg>
